<?xml version="1.0" standalone="no"?><!DOCTYPE svg PUBLIC "-//W3C//DTD SVG 1.1//EN" "http://www.w3.org/Graphics/SVG/1.1/DTD/svg11.dtd"><svg version="1.1" style="font-family:&quot;Lucida Grande&quot;, &quot;Lucida Sans Unicode&quot;, Arial, Helvetica, sans-serif;font-size:12px;" width="987" height="460" xmlns:xlink="http://www.w3.org/1999/xlink" xmlns="http://www.w3.org/2000/svg"><defs xmlns="http://www.w3.org/1999/xhtml"><style type="text/css"><![CDATA[]]></style></defs><defs xmlns="http://www.w3.org/1999/xhtml"><style type="text/css"></style></defs><desc>Created with Highstock 4.2.6</desc><defs><pattern id="highcharts-default-pattern-0" patternUnits="userSpaceOnUse" width="10" height="10"><path d="M 0 0 L 10 10 M 9 -1 L 11 1 M -1 9 L 1 11" stroke="#7cb5ec" stroke-width="2"/></pattern><pattern id="highcharts-default-pattern-1" patternUnits="userSpaceOnUse" width="10" height="10"><path d="M 0 10 L 10 0 M -1 1 L 1 -1 M 9 11 L 11 9" stroke="#434348" stroke-width="2"/></pattern><pattern id="highcharts-default-pattern-2" patternUnits="userSpaceOnUse" width="10" height="10"><path d="M 3 0 L 3 10 M 8 0 L 8 10" stroke="#90ed7d" stroke-width="2"/></pattern><pattern id="highcharts-default-pattern-3" patternUnits="userSpaceOnUse" width="10" height="10"><path d="M 0 3 L 10 3 M 0 8 L 10 8" stroke="#f7a35c" stroke-width="2"/></pattern><pattern id="highcharts-default-pattern-4" patternUnits="userSpaceOnUse" width="10" height="10"><path d="M 0 3 L 5 3 L 5 0 M 5 10 L 5 7 L 10 7" stroke="#8085e9" stroke-width="2"/></pattern><pattern id="highcharts-default-pattern-5" patternUnits="userSpaceOnUse" width="10" height="10"><path d="M 3 3 L 8 3 L 8 8 L 3 8 Z" stroke="#f15c80" stroke-width="2"/></pattern><pattern id="highcharts-default-pattern-6" patternUnits="userSpaceOnUse" width="10" height="10"><path d="M 5 5 m -4 0 a 4 4 0 1 1 8 0 a 4 4 0 1 1 -8 0" stroke="#e4d354" stroke-width="2"/></pattern><pattern id="highcharts-default-pattern-7" patternUnits="userSpaceOnUse" width="10" height="10"><path d="M 10 3 L 5 3 L 5 0 M 5 10 L 5 7 L 0 7" stroke="#2b908f" stroke-width="2"/></pattern><pattern id="highcharts-default-pattern-8" patternUnits="userSpaceOnUse" width="10" height="10"><path d="M 2 5 L 5 2 L 8 5 L 5 8 Z" stroke="#f45b5b" stroke-width="2"/></pattern><pattern id="highcharts-default-pattern-9" patternUnits="userSpaceOnUse" width="10" height="10"><path d="M 0 0 L 5 10 L 10 0" stroke="#91e8e1" stroke-width="2"/></pattern><clipPath id="highcharts-1"><rect x="0" y="0" width="903" height="346"/></clipPath><clipPath id="highcharts-4"><rect x="74" y="10" width="903" height="346"/></clipPath></defs><rect x="0" y="0" width="987" height="460" fill="transparent" class=" highcharts-background"/><path fill="none" d="M 567 10 L 567 356" stroke="#FF0000" stroke-width="2" visibility="visible"/><text x="571" text-anchor="undefined" transform="translate(0,0) rotate(90 571 20)" style="" y="20" visibility="visible"><tspan>interval = 0.5</tspan></text><path fill="none" d="M 801 10 L 801 356" stroke="#FF0000" stroke-width="2" visibility="visible"/><text x="805" text-anchor="undefined" transform="translate(0,0) rotate(90 805 20)" style="" y="20" visibility="visible"><tspan>interval = 1</tspan></text><path fill="none" d="M 316 10 L 316 356" stroke="#00FF00" stroke-width="2" visibility="visible"/><text x="320" text-anchor="undefined" transform="translate(0,0) rotate(90 320 20)" style="" y="20" visibility="visible"><tspan>out_coef = 1.5</tspan></text><g class="highcharts-grid"/><g class="highcharts-grid"><path fill="none" d="M 74 356.5 L 977 356.5" stroke="#D8D8D8" stroke-width="1" opacity="1"/><path fill="none" d="M 74 257.5 L 977 257.5" stroke="#D8D8D8" stroke-width="1" opacity="1"/><path fill="none" d="M 74 158.5 L 977 158.5" stroke="#D8D8D8" stroke-width="1" opacity="1"/><path fill="none" d="M 74 59.5 L 977 59.5" stroke="#D8D8D8" stroke-width="1" opacity="1"/><path fill="none" d="M 74 307.5 L 977 307.5" stroke="#D8D8D8" stroke-width="1" opacity="1"/><path fill="none" d="M 74 208.5 L 977 208.5" stroke="#D8D8D8" stroke-width="1" opacity="1"/><path fill="none" d="M 74 109.5 L 977 109.5" stroke="#D8D8D8" stroke-width="1" opacity="1"/><path fill="none" d="M 74 9.5 L 977 9.5" stroke="#D8D8D8" stroke-width="1" opacity="1"/></g><g class="highcharts-axis"><path fill="none" d="M 81.5 356 L 81.5 366" stroke="#C0D0E0" stroke-width="1" opacity="1"/><path fill="none" d="M 115.5 356 L 115.5 366" stroke="#C0D0E0" stroke-width="1" opacity="1"/><path fill="none" d="M 148.5 356 L 148.5 366" stroke="#C0D0E0" stroke-width="1" opacity="1"/><path fill="none" d="M 182.5 356 L 182.5 366" stroke="#C0D0E0" stroke-width="1" opacity="1"/><path fill="none" d="M 215.5 356 L 215.5 366" stroke="#C0D0E0" stroke-width="1" opacity="1"/><path fill="none" d="M 249.5 356 L 249.5 366" stroke="#C0D0E0" stroke-width="1" opacity="1"/><path fill="none" d="M 282.5 356 L 282.5 366" stroke="#C0D0E0" stroke-width="1" opacity="1"/><path fill="none" d="M 315.5 356 L 315.5 366" stroke="#C0D0E0" stroke-width="1" opacity="1"/><path fill="none" d="M 349.5 356 L 349.5 366" stroke="#C0D0E0" stroke-width="1" opacity="1"/><path fill="none" d="M 382.5 356 L 382.5 366" stroke="#C0D0E0" stroke-width="1" opacity="1"/><path fill="none" d="M 416.5 356 L 416.5 366" stroke="#C0D0E0" stroke-width="1" opacity="1"/><path fill="none" d="M 449.5 356 L 449.5 366" stroke="#C0D0E0" stroke-width="1" opacity="1"/><path fill="none" d="M 483.5 356 L 483.5 366" stroke="#C0D0E0" stroke-width="1" opacity="1"/><path fill="none" d="M 516.5 356 L 516.5 366" stroke="#C0D0E0" stroke-width="1" opacity="1"/><path fill="none" d="M 550.5 356 L 550.5 366" stroke="#C0D0E0" stroke-width="1" opacity="1"/><path fill="none" d="M 583.5 356 L 583.5 366" stroke="#C0D0E0" stroke-width="1" opacity="1"/><path fill="none" d="M 616.5 356 L 616.5 366" stroke="#C0D0E0" stroke-width="1" opacity="1"/><path fill="none" d="M 650.5 356 L 650.5 366" stroke="#C0D0E0" stroke-width="1" opacity="1"/><path fill="none" d="M 683.5 356 L 683.5 366" stroke="#C0D0E0" stroke-width="1" opacity="1"/><path fill="none" d="M 717.5 356 L 717.5 366" stroke="#C0D0E0" stroke-width="1" opacity="1"/><path fill="none" d="M 750.5 356 L 750.5 366" stroke="#C0D0E0" stroke-width="1" opacity="1"/><path fill="none" d="M 784.5 356 L 784.5 366" stroke="#C0D0E0" stroke-width="1" opacity="1"/><path fill="none" d="M 817.5 356 L 817.5 366" stroke="#C0D0E0" stroke-width="1" opacity="1"/><path fill="none" d="M 851.5 356 L 851.5 366" stroke="#C0D0E0" stroke-width="1" opacity="1"/><path fill="none" d="M 884.5 356 L 884.5 366" stroke="#C0D0E0" stroke-width="1" opacity="1"/><path fill="none" d="M 917.5 356 L 917.5 366" stroke="#C0D0E0" stroke-width="1" opacity="1"/><path fill="none" d="M 951.5 356 L 951.5 366" stroke="#C0D0E0" stroke-width="1" opacity="1"/><text x="525.5" text-anchor="middle" transform="translate(0,0)" class=" highcharts-xaxis-title" style="color:#707070;fill:#707070;" y="397.5625"><tspan>Outlier coefficient for boxplot stats IQR</tspan></text><path fill="none" d="M 74 356.5 L 977 356.5" stroke="#C0D0E0" stroke-width="1"/></g><g class="highcharts-axis"><text x="27.75" text-anchor="middle" transform="translate(0,0) rotate(270 27.75 183)" class=" highcharts-yaxis-title" style="color:#707070;fill:#707070;" y="183"><tspan>Share of edited unit value outliers</tspan></text></g><g class="highcharts-series-group"><path fill="#7cb5ec" fill-opacity="0.25" d="M 0 0"/><g class="highcharts-series highcharts-series-0" transform="translate(74,10) scale(1 1)" clip-path="url(#highcharts-1)"><path fill="none" d="M 8.3611111111111 52.7897142857143 L 25.083333333333 107.5565714285714 L 41.805555555556 145.61657142857143 L 58.527777777778 173.8897142857143 L 75.25 195.93485714285714 L 91.972222222222 213.23485714285715 L 108.69444444444 227.37142857142857 L 125.41666666667 239.03657142857142 L 142.13888888889 249.12 L 158.86111111111 258.3137142857143 L 175.58333333333 264.4428571428571 L 192.30555555556 269.88 L 209.02777777778 274.62514285714286 L 225.75 278.77714285714285 L 242.47222222222 282.43485714285714 L 259.19444444444 285.796 L 275.91666666667 288.7617142857143 L 292.63888888889 291.4308571428571 L 309.36111111111 293.9022857142857 L 326.08333333333 296.176 L 342.80555555556 298.252 L 359.52777777778 300.1302857142857 L 376.25 301.8108571428571 L 392.97222222222 303.49142857142857 L 409.69444444444 304.9742857142857 L 426.41666666667 306.45714285714286 L 443.13888888889 307.84114285714287 L 459.86111111111 309.0274285714286 L 476.58333333333 310.2137142857143 L 493.30555555556 311.4 L 510.02777777778 316.0462857142857 L 526.75 319.80285714285714 L 543.47222222222 322.6697142857143 L 560.19444444444 325.1411428571429 L 576.91666666667 327.1182857142857 L 593.63888888889 328.7988571428571 L 610.36111111111 330.18285714285713 L 627.08333333333 331.36914285714283 L 643.80555555556 332.3577142857143 L 660.52777777778 333.2474285714286 L 677.25 334.03828571428573 L 693.97222222222 334.73028571428574 L 710.69444444444 335.4222857142857 L 727.41666666667 336.0154285714286 L 744.13888888889 336.90514285714283 L 760.86111111111 337.79485714285715 L 777.58333333333 338.388 L 794.30555555556 338.98114285714286 L 811.02777777778 339.47542857142855 L 827.75 339.9697142857143 L 844.47222222222 340.36514285714287 L 861.19444444444 340.6617142857143 L 877.91666666667 340.9582857142857 L 894.63888888889 341.25485714285713" stroke="#7cb5ec" stroke-width="2" stroke-linejoin="round" stroke-linecap="round"/><path fill="none" d="M -1.6388888888889 52.7897142857143 L 8.3611111111111 52.7897142857143 L 25.083333333333 107.5565714285714 L 41.805555555556 145.61657142857143 L 58.527777777778 173.8897142857143 L 75.25 195.93485714285714 L 91.972222222222 213.23485714285715 L 108.69444444444 227.37142857142857 L 125.41666666667 239.03657142857142 L 142.13888888889 249.12 L 158.86111111111 258.3137142857143 L 175.58333333333 264.4428571428571 L 192.30555555556 269.88 L 209.02777777778 274.62514285714286 L 225.75 278.77714285714285 L 242.47222222222 282.43485714285714 L 259.19444444444 285.796 L 275.91666666667 288.7617142857143 L 292.63888888889 291.4308571428571 L 309.36111111111 293.9022857142857 L 326.08333333333 296.176 L 342.80555555556 298.252 L 359.52777777778 300.1302857142857 L 376.25 301.8108571428571 L 392.97222222222 303.49142857142857 L 409.69444444444 304.9742857142857 L 426.41666666667 306.45714285714286 L 443.13888888889 307.84114285714287 L 459.86111111111 309.0274285714286 L 476.58333333333 310.2137142857143 L 493.30555555556 311.4 L 510.02777777778 316.0462857142857 L 526.75 319.80285714285714 L 543.47222222222 322.6697142857143 L 560.19444444444 325.1411428571429 L 576.91666666667 327.1182857142857 L 593.63888888889 328.7988571428571 L 610.36111111111 330.18285714285713 L 627.08333333333 331.36914285714283 L 643.80555555556 332.3577142857143 L 660.52777777778 333.2474285714286 L 677.25 334.03828571428573 L 693.97222222222 334.73028571428574 L 710.69444444444 335.4222857142857 L 727.41666666667 336.0154285714286 L 744.13888888889 336.90514285714283 L 760.86111111111 337.79485714285715 L 777.58333333333 338.388 L 794.30555555556 338.98114285714286 L 811.02777777778 339.47542857142855 L 827.75 339.9697142857143 L 844.47222222222 340.36514285714287 L 861.19444444444 340.6617142857143 L 877.91666666667 340.9582857142857 L 894.63888888889 341.25485714285713 L 904.63888888889 341.25485714285713" stroke-linejoin="round" visibility="visible" stroke="rgba(192,192,192,0.0001)" stroke-width="22" class=" highcharts-tracker" style=""/></g><g class="highcharts-markers highcharts-series-0 highcharts-tracker" transform="translate(74,10) scale(1 1)" clip-path="url(#highcharts-2)" style=""><path fill="#7cb5ec" d="M 894 337.25485714285713 C 899.328 337.25485714285713 899.328 345.25485714285713 894 345.25485714285713 C 888.672 345.25485714285713 888.672 337.25485714285713 894 337.25485714285713 Z" stroke-width="1"/><path fill="#7cb5ec" d="M 877 336.9582857142857 C 882.328 336.9582857142857 882.328 344.9582857142857 877 344.9582857142857 C 871.672 344.9582857142857 871.672 336.9582857142857 877 336.9582857142857 Z" stroke-width="1"/><path fill="#7cb5ec" d="M 861 336.6617142857143 C 866.328 336.6617142857143 866.328 344.6617142857143 861 344.6617142857143 C 855.672 344.6617142857143 855.672 336.6617142857143 861 336.6617142857143 Z"/><path fill="#7cb5ec" d="M 844 336.36514285714287 C 849.328 336.36514285714287 849.328 344.36514285714287 844 344.36514285714287 C 838.672 344.36514285714287 838.672 336.36514285714287 844 336.36514285714287 Z"/><path fill="#7cb5ec" d="M 827 335.9697142857143 C 832.328 335.9697142857143 832.328 343.9697142857143 827 343.9697142857143 C 821.672 343.9697142857143 821.672 335.9697142857143 827 335.9697142857143 Z"/><path fill="#7cb5ec" d="M 811 335.47542857142855 C 816.328 335.47542857142855 816.328 343.47542857142855 811 343.47542857142855 C 805.672 343.47542857142855 805.672 335.47542857142855 811 335.47542857142855 Z"/><path fill="#7cb5ec" d="M 794 334.98114285714286 C 799.328 334.98114285714286 799.328 342.98114285714286 794 342.98114285714286 C 788.672 342.98114285714286 788.672 334.98114285714286 794 334.98114285714286 Z"/><path fill="#7cb5ec" d="M 777 334.388 C 782.328 334.388 782.328 342.388 777 342.388 C 771.672 342.388 771.672 334.388 777 334.388 Z"/><path fill="#7cb5ec" d="M 760 333.79485714285715 C 765.328 333.79485714285715 765.328 341.79485714285715 760 341.79485714285715 C 754.672 341.79485714285715 754.672 333.79485714285715 760 333.79485714285715 Z"/><path fill="#7cb5ec" d="M 744 332.90514285714283 C 749.328 332.90514285714283 749.328 340.90514285714283 744 340.90514285714283 C 738.672 340.90514285714283 738.672 332.90514285714283 744 332.90514285714283 Z"/><path fill="#7cb5ec" d="M 727 332.0154285714286 C 732.328 332.0154285714286 732.328 340.0154285714286 727 340.0154285714286 C 721.672 340.0154285714286 721.672 332.0154285714286 727 332.0154285714286 Z"/><path fill="#7cb5ec" d="M 710 331.4222857142857 C 715.328 331.4222857142857 715.328 339.4222857142857 710 339.4222857142857 C 704.672 339.4222857142857 704.672 331.4222857142857 710 331.4222857142857 Z"/><path fill="#7cb5ec" d="M 693 330.73028571428574 C 698.328 330.73028571428574 698.328 338.73028571428574 693 338.73028571428574 C 687.672 338.73028571428574 687.672 330.73028571428574 693 330.73028571428574 Z"/><path fill="#7cb5ec" d="M 677 330.03828571428573 C 682.328 330.03828571428573 682.328 338.03828571428573 677 338.03828571428573 C 671.672 338.03828571428573 671.672 330.03828571428573 677 330.03828571428573 Z"/><path fill="#7cb5ec" d="M 660 329.2474285714286 C 665.328 329.2474285714286 665.328 337.2474285714286 660 337.2474285714286 C 654.672 337.2474285714286 654.672 329.2474285714286 660 329.2474285714286 Z"/><path fill="#7cb5ec" d="M 643 328.3577142857143 C 648.328 328.3577142857143 648.328 336.3577142857143 643 336.3577142857143 C 637.672 336.3577142857143 637.672 328.3577142857143 643 328.3577142857143 Z"/><path fill="#7cb5ec" d="M 627 327.36914285714283 C 632.328 327.36914285714283 632.328 335.36914285714283 627 335.36914285714283 C 621.672 335.36914285714283 621.672 327.36914285714283 627 327.36914285714283 Z"/><path fill="#7cb5ec" d="M 610 326.18285714285713 C 615.328 326.18285714285713 615.328 334.18285714285713 610 334.18285714285713 C 604.672 334.18285714285713 604.672 326.18285714285713 610 326.18285714285713 Z"/><path fill="#7cb5ec" d="M 593 324.7988571428571 C 598.328 324.7988571428571 598.328 332.7988571428571 593 332.7988571428571 C 587.672 332.7988571428571 587.672 324.7988571428571 593 324.7988571428571 Z"/><path fill="#7cb5ec" d="M 576 323.1182857142857 C 581.328 323.1182857142857 581.328 331.1182857142857 576 331.1182857142857 C 570.672 331.1182857142857 570.672 323.1182857142857 576 323.1182857142857 Z"/><path fill="#7cb5ec" d="M 560 321.1411428571429 C 565.328 321.1411428571429 565.328 329.1411428571429 560 329.1411428571429 C 554.672 329.1411428571429 554.672 321.1411428571429 560 321.1411428571429 Z"/><path fill="#7cb5ec" d="M 543 318.6697142857143 C 548.328 318.6697142857143 548.328 326.6697142857143 543 326.6697142857143 C 537.672 326.6697142857143 537.672 318.6697142857143 543 318.6697142857143 Z"/><path fill="#7cb5ec" d="M 526 315.80285714285714 C 531.328 315.80285714285714 531.328 323.80285714285714 526 323.80285714285714 C 520.672 323.80285714285714 520.672 315.80285714285714 526 315.80285714285714 Z"/><path fill="#7cb5ec" d="M 510 312.0462857142857 C 515.328 312.0462857142857 515.328 320.0462857142857 510 320.0462857142857 C 504.672 320.0462857142857 504.672 312.0462857142857 510 312.0462857142857 Z"/><path fill="#7cb5ec" d="M 493 307.4 C 498.328 307.4 498.328 315.4 493 315.4 C 487.672 315.4 487.672 307.4 493 307.4 Z"/><path fill="#7cb5ec" d="M 476 306.2137142857143 C 481.328 306.2137142857143 481.328 314.2137142857143 476 314.2137142857143 C 470.672 314.2137142857143 470.672 306.2137142857143 476 306.2137142857143 Z"/><path fill="#7cb5ec" d="M 459 305.0274285714286 C 464.328 305.0274285714286 464.328 313.0274285714286 459 313.0274285714286 C 453.672 313.0274285714286 453.672 305.0274285714286 459 305.0274285714286 Z"/><path fill="#7cb5ec" d="M 443 303.84114285714287 C 448.328 303.84114285714287 448.328 311.84114285714287 443 311.84114285714287 C 437.672 311.84114285714287 437.672 303.84114285714287 443 303.84114285714287 Z"/><path fill="#7cb5ec" d="M 426 302.45714285714286 C 431.328 302.45714285714286 431.328 310.45714285714286 426 310.45714285714286 C 420.672 310.45714285714286 420.672 302.45714285714286 426 302.45714285714286 Z"/><path fill="#7cb5ec" d="M 409 300.9742857142857 C 414.328 300.9742857142857 414.328 308.9742857142857 409 308.9742857142857 C 403.672 308.9742857142857 403.672 300.9742857142857 409 300.9742857142857 Z"/><path fill="#7cb5ec" d="M 392 299.49142857142857 C 397.328 299.49142857142857 397.328 307.49142857142857 392 307.49142857142857 C 386.672 307.49142857142857 386.672 299.49142857142857 392 299.49142857142857 Z"/><path fill="#7cb5ec" d="M 376 297.8108571428571 C 381.328 297.8108571428571 381.328 305.8108571428571 376 305.8108571428571 C 370.672 305.8108571428571 370.672 297.8108571428571 376 297.8108571428571 Z"/><path fill="#7cb5ec" d="M 359 296.1302857142857 C 364.328 296.1302857142857 364.328 304.1302857142857 359 304.1302857142857 C 353.672 304.1302857142857 353.672 296.1302857142857 359 296.1302857142857 Z"/><path fill="#7cb5ec" d="M 342 294.252 C 347.328 294.252 347.328 302.252 342 302.252 C 336.672 302.252 336.672 294.252 342 294.252 Z"/><path fill="#7cb5ec" d="M 326 292.176 C 331.328 292.176 331.328 300.176 326 300.176 C 320.672 300.176 320.672 292.176 326 292.176 Z"/><path fill="#7cb5ec" d="M 309 289.9022857142857 C 314.328 289.9022857142857 314.328 297.9022857142857 309 297.9022857142857 C 303.672 297.9022857142857 303.672 289.9022857142857 309 289.9022857142857 Z"/><path fill="#7cb5ec" d="M 292 287.4308571428571 C 297.328 287.4308571428571 297.328 295.4308571428571 292 295.4308571428571 C 286.672 295.4308571428571 286.672 287.4308571428571 292 287.4308571428571 Z"/><path fill="#7cb5ec" d="M 275 284.7617142857143 C 280.328 284.7617142857143 280.328 292.7617142857143 275 292.7617142857143 C 269.672 292.7617142857143 269.672 284.7617142857143 275 284.7617142857143 Z"/><path fill="#7cb5ec" d="M 259 281.796 C 264.328 281.796 264.328 289.796 259 289.796 C 253.672 289.796 253.672 281.796 259 281.796 Z"/><path fill="#7cb5ec" d="M 242 278.43485714285714 C 247.328 278.43485714285714 247.328 286.43485714285714 242 286.43485714285714 C 236.672 286.43485714285714 236.672 278.43485714285714 242 278.43485714285714 Z"/><path fill="#7cb5ec" d="M 225 274.77714285714285 C 230.328 274.77714285714285 230.328 282.77714285714285 225 282.77714285714285 C 219.672 282.77714285714285 219.672 274.77714285714285 225 274.77714285714285 Z"/><path fill="#7cb5ec" d="M 209 270.62514285714286 C 214.328 270.62514285714286 214.328 278.62514285714286 209 278.62514285714286 C 203.672 278.62514285714286 203.672 270.62514285714286 209 270.62514285714286 Z"/><path fill="#7cb5ec" d="M 192 265.88 C 197.328 265.88 197.328 273.88 192 273.88 C 186.672 273.88 186.672 265.88 192 265.88 Z"/><path fill="#7cb5ec" d="M 175 260.4428571428571 C 180.328 260.4428571428571 180.328 268.4428571428571 175 268.4428571428571 C 169.672 268.4428571428571 169.672 260.4428571428571 175 260.4428571428571 Z"/><path fill="#7cb5ec" d="M 158 254.3137142857143 C 163.328 254.3137142857143 163.328 262.3137142857143 158 262.3137142857143 C 152.672 262.3137142857143 152.672 254.3137142857143 158 254.3137142857143 Z"/><path fill="#7cb5ec" d="M 142 245.12 C 147.328 245.12 147.328 253.12 142 253.12 C 136.672 253.12 136.672 245.12 142 245.12 Z"/><path fill="#7cb5ec" d="M 125 235.03657142857142 C 130.328 235.03657142857142 130.328 243.03657142857142 125 243.03657142857142 C 119.672 243.03657142857142 119.672 235.03657142857142 125 235.03657142857142 Z"/><path fill="#7cb5ec" d="M 108 223.37142857142857 C 113.328 223.37142857142857 113.328 231.37142857142857 108 231.37142857142857 C 102.672 231.37142857142857 102.672 223.37142857142857 108 223.37142857142857 Z"/><path fill="#7cb5ec" d="M 91 209.23485714285715 C 96.328 209.23485714285715 96.328 217.23485714285715 91 217.23485714285715 C 85.672 217.23485714285715 85.672 209.23485714285715 91 209.23485714285715 Z"/><path fill="#7cb5ec" d="M 75 191.93485714285714 C 80.328 191.93485714285714 80.328 199.93485714285714 75 199.93485714285714 C 69.672 199.93485714285714 69.672 191.93485714285714 75 191.93485714285714 Z"/><path fill="#7cb5ec" d="M 58 169.8897142857143 C 63.328 169.8897142857143 63.328 177.8897142857143 58 177.8897142857143 C 52.672 177.8897142857143 52.672 169.8897142857143 58 169.8897142857143 Z"/><path fill="#7cb5ec" d="M 41 141.61657142857143 C 46.328 141.61657142857143 46.328 149.61657142857143 41 149.61657142857143 C 35.672 149.61657142857143 35.672 141.61657142857143 41 141.61657142857143 Z"/><path fill="#7cb5ec" d="M 25 103.5565714285714 C 30.328 103.5565714285714 30.328 111.5565714285714 25 111.5565714285714 C 19.672 111.5565714285714 19.672 103.5565714285714 25 103.5565714285714 Z"/><path fill="#7cb5ec" d="M 8 48.7897142857143 C 13.328 48.7897142857143 13.328 56.7897142857143 8 56.7897142857143 C 2.6719999999999997 56.7897142857143 2.6719999999999997 48.7897142857143 8 48.7897142857143 Z"/></g></g><g class="highcharts-legend" transform="translate(379,416)"><g><g><g class="highcharts-legend-item" transform="translate(8,3)"><path fill="none" d="M 0 11 L 16 11" stroke="#7cb5ec" stroke-width="2"/><path fill="#7cb5ec" d="M 8 7 C 13.328 7 13.328 15 8 15 C 2.6719999999999997 15 2.6719999999999997 7 8 7 Z"/><text x="21" style="color:#333333;font-size:12px;font-weight:bold;cursor:pointer;fill:#333333;" text-anchor="start" y="15"><tspan>HS commodity detail, year 2011</tspan></text></g></g></g></g><g class="highcharts-axis-labels highcharts-xaxis-labels"><text x="82.36111111111111" style="color:#606060;cursor:default;font-size:11px;fill:#606060;width:33.44444444444444;text-overflow:ellipsis;" text-anchor="middle" transform="translate(0,0)" y="375" opacity="1"><tspan>0.1</tspan></text><text x="115.80555555555556" style="color:#606060;cursor:default;font-size:11px;fill:#606060;width:33.44444444444444;text-overflow:ellipsis;" text-anchor="middle" transform="translate(0,0)" y="375" opacity="1"><tspan>0.3</tspan></text><text x="149.25" style="color:#606060;cursor:default;font-size:11px;fill:#606060;width:33.44444444444444;text-overflow:ellipsis;" text-anchor="middle" transform="translate(0,0)" y="375" opacity="1"><tspan>0.5</tspan></text><text x="182.69444444444446" style="color:#606060;cursor:default;font-size:11px;fill:#606060;width:33.44444444444444;text-overflow:ellipsis;" text-anchor="middle" transform="translate(0,0)" y="375" opacity="1"><tspan>0.7</tspan></text><text x="216.13888888888889" style="color:#606060;cursor:default;font-size:11px;fill:#606060;width:33.44444444444444;text-overflow:ellipsis;" text-anchor="middle" transform="translate(0,0)" y="375" opacity="1"><tspan>0.9</tspan></text><text x="249.58333333333334" style="color:#606060;cursor:default;font-size:11px;fill:#606060;width:33.44444444444444;text-overflow:ellipsis;" text-anchor="middle" transform="translate(0,0)" y="375" opacity="1"><tspan>1.1</tspan></text><text x="283.02777777777777" style="color:#606060;cursor:default;font-size:11px;fill:#606060;width:33.44444444444444;text-overflow:ellipsis;" text-anchor="middle" transform="translate(0,0)" y="375" opacity="1"><tspan>1.3</tspan></text><text x="316.4722222222222" style="color:#606060;cursor:default;font-size:11px;fill:#606060;width:33.44444444444444;text-overflow:ellipsis;" text-anchor="middle" transform="translate(0,0)" y="375" opacity="1"><tspan>1.5</tspan></text><text x="349.91666666666663" style="color:#606060;cursor:default;font-size:11px;fill:#606060;width:33.44444444444444;text-overflow:ellipsis;" text-anchor="middle" transform="translate(0,0)" y="375" opacity="1"><tspan>1.7</tspan></text><text x="383.3611111111111" style="color:#606060;cursor:default;font-size:11px;fill:#606060;width:33.44444444444444;text-overflow:ellipsis;" text-anchor="middle" transform="translate(0,0)" y="375" opacity="1"><tspan>1.9</tspan></text><text x="416.80555555555554" style="color:#606060;cursor:default;font-size:11px;fill:#606060;width:33.44444444444444;text-overflow:ellipsis;" text-anchor="middle" transform="translate(0,0)" y="375" opacity="1"><tspan>2.1</tspan></text><text x="450.24999999999994" style="color:#606060;cursor:default;font-size:11px;fill:#606060;width:33.44444444444444;text-overflow:ellipsis;" text-anchor="middle" transform="translate(0,0)" y="375" opacity="1"><tspan>2.3</tspan></text><text x="483.6944444444444" style="color:#606060;cursor:default;font-size:11px;fill:#606060;width:33.44444444444444;text-overflow:ellipsis;" text-anchor="middle" transform="translate(0,0)" y="375" opacity="1"><tspan>2.5</tspan></text><text x="517.1388888888889" style="color:#606060;cursor:default;font-size:11px;fill:#606060;width:33.44444444444444;text-overflow:ellipsis;" text-anchor="middle" transform="translate(0,0)" y="375" opacity="1"><tspan>2.7</tspan></text><text x="550.5833333333333" style="color:#606060;cursor:default;font-size:11px;fill:#606060;width:33.44444444444444;text-overflow:ellipsis;" text-anchor="middle" transform="translate(0,0)" y="375" opacity="1"><tspan>2.9</tspan></text><text x="584.0277777777777" style="color:#606060;cursor:default;font-size:11px;fill:#606060;width:33.44444444444444;text-overflow:ellipsis;" text-anchor="middle" transform="translate(0,0)" y="375" opacity="1"><tspan>3.5</tspan></text><text x="617.4722222222222" style="color:#606060;cursor:default;font-size:11px;fill:#606060;width:33.44444444444444;text-overflow:ellipsis;" text-anchor="middle" transform="translate(0,0)" y="375" opacity="1"><tspan>4.5</tspan></text><text x="650.9166666666666" style="color:#606060;cursor:default;font-size:11px;fill:#606060;width:33.44444444444444;text-overflow:ellipsis;" text-anchor="middle" transform="translate(0,0)" y="375" opacity="1"><tspan>5.5</tspan></text><text x="684.3611111111111" style="color:#606060;cursor:default;font-size:11px;fill:#606060;width:33.44444444444444;text-overflow:ellipsis;" text-anchor="middle" transform="translate(0,0)" y="375" opacity="1"><tspan>6.5</tspan></text><text x="717.8055555555555" style="color:#606060;cursor:default;font-size:11px;fill:#606060;width:33.44444444444444;text-overflow:ellipsis;" text-anchor="middle" transform="translate(0,0)" y="375" opacity="1"><tspan>7.5</tspan></text><text x="751.25" style="color:#606060;cursor:default;font-size:11px;fill:#606060;width:33.44444444444444;text-overflow:ellipsis;" text-anchor="middle" transform="translate(0,0)" y="375" opacity="1"><tspan>8.5</tspan></text><text x="784.6944444444443" style="color:#606060;cursor:default;font-size:11px;fill:#606060;width:33.44444444444444;text-overflow:ellipsis;" text-anchor="middle" transform="translate(0,0)" y="375" opacity="1"><tspan>9.5</tspan></text><text x="818.1388888888888" style="color:#606060;cursor:default;font-size:11px;fill:#606060;width:33.44444444444444;text-overflow:ellipsis;" text-anchor="middle" transform="translate(0,0)" y="375" opacity="1"><tspan>11</tspan></text><text x="851.5833333333333" style="color:#606060;cursor:default;font-size:11px;fill:#606060;width:33.44444444444444;text-overflow:ellipsis;" text-anchor="middle" transform="translate(0,0)" y="375" opacity="1"><tspan>13</tspan></text><text x="885.0277777777777" style="color:#606060;cursor:default;font-size:11px;fill:#606060;width:33.44444444444444;text-overflow:ellipsis;" text-anchor="middle" transform="translate(0,0)" y="375" opacity="1"><tspan>15</tspan></text><text x="918.4722222222222" style="color:#606060;cursor:default;font-size:11px;fill:#606060;width:33.44444444444444;text-overflow:ellipsis;" text-anchor="middle" transform="translate(0,0)" y="375" opacity="1"><tspan>17</tspan></text><text x="951.9166666666666" style="color:#606060;cursor:default;font-size:11px;fill:#606060;width:33.44444444444444;text-overflow:ellipsis;" text-anchor="middle" transform="translate(0,0)" y="375" opacity="1"><tspan>19</tspan></text></g><g class="highcharts-axis-labels highcharts-yaxis-labels"><text x="59" style="color:#606060;cursor:default;font-size:11px;fill:#606060;width:316px;text-overflow:clip;" text-anchor="end" transform="translate(0,0)" y="359" opacity="1"><tspan>0%</tspan></text><text x="59" style="color:#606060;cursor:default;font-size:11px;fill:#606060;width:316px;text-overflow:clip;" text-anchor="end" transform="translate(0,0)" y="260" opacity="1"><tspan>10%</tspan></text><text x="59" style="color:#606060;cursor:default;font-size:11px;fill:#606060;width:316px;text-overflow:clip;" text-anchor="end" transform="translate(0,0)" y="161" opacity="1"><tspan>20%</tspan></text><text x="59" style="color:#606060;cursor:default;font-size:11px;fill:#606060;width:316px;text-overflow:clip;" text-anchor="end" transform="translate(0,0)" y="62" opacity="1"><tspan>30%</tspan></text><text x="59" style="color:#606060;cursor:default;font-size:11px;fill:#606060;width:316px;text-overflow:clip;" text-anchor="end" transform="translate(0,0)" y="309" opacity="1"><tspan>5%</tspan></text><text x="59" style="color:#606060;cursor:default;font-size:11px;fill:#606060;width:316px;text-overflow:clip;" text-anchor="end" transform="translate(0,0)" y="210" opacity="1"><tspan>15%</tspan></text><text x="59" style="color:#606060;cursor:default;font-size:11px;fill:#606060;width:316px;text-overflow:clip;" text-anchor="end" transform="translate(0,0)" y="112" opacity="1"><tspan>25%</tspan></text><text x="59" style="color:#606060;cursor:default;font-size:11px;fill:#606060;width:316px;text-overflow:clip;" text-anchor="end" transform="translate(0,0)" y="13" opacity="1"><tspan>35%</tspan></text></g><g class="highcharts-annotations-group-0" clip-path="url(#highcharts-4)"/><g class="highcharts-tooltip" style="cursor:default;padding:0;pointer-events:none;white-space:nowrap;" transform="translate(734,-9999)" opacity="0" visibility="visible"><path fill="none" d="M 3.5 0.5 L 248.5 0.5 C 251.5 0.5 251.5 0.5 251.5 3.5 L 251.5 44.5 C 251.5 47.5 251.5 47.5 248.5 47.5 L 223.5 47.5 217.5 53.5 211.5 47.5 3.5 47.5 C 0.5 47.5 0.5 47.5 0.5 44.5 L 0.5 3.5 C 0.5 0.5 0.5 0.5 3.5 0.5" isShadow="true" stroke="black" stroke-opacity="0.049999999999999996" stroke-width="5" transform="translate(1, 1)"/><path fill="none" d="M 3.5 0.5 L 248.5 0.5 C 251.5 0.5 251.5 0.5 251.5 3.5 L 251.5 44.5 C 251.5 47.5 251.5 47.5 248.5 47.5 L 223.5 47.5 217.5 53.5 211.5 47.5 3.5 47.5 C 0.5 47.5 0.5 47.5 0.5 44.5 L 0.5 3.5 C 0.5 0.5 0.5 0.5 3.5 0.5" isShadow="true" stroke="black" stroke-opacity="0.09999999999999999" stroke-width="3" transform="translate(1, 1)"/><path fill="none" d="M 3.5 0.5 L 248.5 0.5 C 251.5 0.5 251.5 0.5 251.5 3.5 L 251.5 44.5 C 251.5 47.5 251.5 47.5 248.5 47.5 L 223.5 47.5 217.5 53.5 211.5 47.5 3.5 47.5 C 0.5 47.5 0.5 47.5 0.5 44.5 L 0.5 3.5 C 0.5 0.5 0.5 0.5 3.5 0.5" isShadow="true" stroke="black" stroke-opacity="0.15" stroke-width="1" transform="translate(1, 1)"/><path fill="rgba(249, 249, 249, .85)" d="M 3.5 0.5 L 248.5 0.5 C 251.5 0.5 251.5 0.5 251.5 3.5 L 251.5 44.5 C 251.5 47.5 251.5 47.5 248.5 47.5 L 223.5 47.5 217.5 53.5 211.5 47.5 3.5 47.5 C 0.5 47.5 0.5 47.5 0.5 44.5 L 0.5 3.5 C 0.5 0.5 0.5 0.5 3.5 0.5" stroke="#7cb5ec" stroke-width="1"/><text x="8" style="font-size:12px;color:#333333;fill:#333333;" y="20"><tspan style="font-size: 10px">19</tspan><tspan style="fill:#7cb5ec" x="8" dy="15">â—</tspan><tspan dx="0"> HS commodity detail, year 2011: </tspan><tspan style="font-weight:bold" dx="0">0.51</tspan></text></g></svg>