<?xml version="1.0" encoding="UTF-8"?><svg xmlns="http://www.w3.org/2000/svg" xmlns:xlink="http://www.w3.org/1999/xlink" fill-opacity="1" color-rendering="auto" color-interpolation="auto" text-rendering="auto" stroke="black" stroke-linecap="square" width="776" stroke-miterlimit="10" shape-rendering="auto" stroke-opacity="1" fill="black" stroke-dasharray="none" font-weight="normal" stroke-width="1" height="376" font-family="'Dialog'" font-style="normal" stroke-linejoin="miter" font-size="12" stroke-dashoffset="0" image-rendering="auto">
  <!--Generated by ySVG 2.5-->
  <defs id="genericDefs"/>
  <g>
    <defs id="defs1">
      <clipPath clipPathUnits="userSpaceOnUse" id="clipPath1">
        <path d="M0 0 L776 0 L776 376 L0 376 L0 0 Z"/>
      </clipPath>
      <clipPath clipPathUnits="userSpaceOnUse" id="clipPath2">
        <path d="M95 -184 L871 -184 L871 192 L95 192 L95 -184 Z"/>
      </clipPath>
    </defs>
    <g fill="white" text-rendering="geometricPrecision" shape-rendering="geometricPrecision" transform="translate(-95,184)" stroke="white">
      <rect x="95" width="776" height="376" y="-184" clip-path="url(#clipPath2)" stroke="none"/>
    </g>
    <g text-rendering="geometricPrecision" stroke-miterlimit="1.45" shape-rendering="geometricPrecision" font-family="sans-serif" transform="matrix(1,0,0,1,-95,184)" stroke-linecap="butt">
      <text x="312.4871" xml:space="preserve" y="58.6543" clip-path="url(#clipPath2)" stroke="none">Gross Exports</text>
      <rect x="303.2" y="14" clip-path="url(#clipPath2)" fill="none" width="102" rx="4" ry="4" height="81" stroke="rgb(24,117,198)"/>
      <text x="182.6041" xml:space="preserve" y="-50.8613" clip-path="url(#clipPath2)" stroke="none">cou B</text>
      <rect x="110.4" y="-68" clip-path="url(#clipPath2)" fill="none" width="178" rx="4" ry="4" height="245" stroke="rgb(24,117,198)"/>
      <text x="144.7379" xml:space="preserve" y="9.6543" clip-path="url(#clipPath2)" stroke="none">Exporting Country</text>
      <rect x="128.4" y="-40" clip-path="url(#clipPath2)" fill="none" width="142" rx="4" ry="4" height="91" stroke="rgb(24,117,198)"/>
      <text x="143.8941" xml:space="preserve" y="115.6543" clip-path="url(#clipPath2)" stroke="none">Exporting Industry</text>
      <rect x="128.4" y="66" clip-path="url(#clipPath2)" fill="none" width="142" rx="4" ry="4" height="91" stroke="rgb(24,117,198)"/>
      <text x="507.3309" xml:space="preserve" y="-50.8613" clip-path="url(#clipPath2)" stroke="none">cou C</text>
      <rect x="435.2" y="-68" clip-path="url(#clipPath2)" fill="none" width="178" rx="4" ry="4" height="245" stroke="rgb(24,117,198)"/>
      <text x="749.6158" xml:space="preserve" y="-50.8613" clip-path="url(#clipPath2)" stroke="none">cou A</text>
      <rect x="677.4" y="-68" clip-path="url(#clipPath2)" fill="none" width="178" rx="4" ry="4" height="245" stroke="rgb(24,117,198)"/>
      <text x="728.4987" xml:space="preserve" y="2.6699" clip-path="url(#clipPath2)" stroke="none">Value-added</text>
      <text x="719.9176" xml:space="preserve" y="16.6387" clip-path="url(#clipPath2)" stroke="none">Source Country</text>
      <rect x="695.4" y="-40" clip-path="url(#clipPath2)" fill="none" width="142" rx="4" ry="4" height="91" stroke="rgb(24,117,198)"/>
      <text x="728.4987" xml:space="preserve" y="108.6699" clip-path="url(#clipPath2)" stroke="none">Value-added</text>
      <text x="719.0739" xml:space="preserve" y="122.6387" clip-path="url(#clipPath2)" stroke="none">Source Industry</text>
      <rect x="695.4" y="66" clip-path="url(#clipPath2)" fill="none" width="142" rx="4" ry="4" height="91" stroke="rgb(24,117,198)"/>
      <text x="469.2654" xml:space="preserve" y="9.6543" clip-path="url(#clipPath2)" stroke="none">Importing Country</text>
      <rect x="453.2" y="-40" clip-path="url(#clipPath2)" fill="none" width="142" rx="4" ry="4" height="91" stroke="rgb(24,117,198)"/>
      <text x="186.76" xml:space="preserve" y="-126.3301" clip-path="url(#clipPath2)" stroke="none">Value-added generated in country A</text>
      <text x="178.1086" xml:space="preserve" y="-112.3613" clip-path="url(#clipPath2)" stroke="none">by exports from country B to country C</text>
      <rect x="170.8" y="-157" clip-path="url(#clipPath2)" fill="none" width="250" rx="4" ry="4" height="67" stroke="rgb(24,117,198)"/>
    </g>
    <g text-rendering="geometricPrecision" stroke-miterlimit="1.45" shape-rendering="geometricPrecision" transform="matrix(1,0,0,1,-95,184)" stroke-linecap="butt">
      <path fill="none" d="M288.4024 53 L288.4024 56 L303.2133 56 L303.2133 53 Z" clip-path="url(#clipPath2)"/>
    </g>
    <g text-rendering="geometricPrecision" stroke-miterlimit="1.45" shape-rendering="geometricPrecision" transform="matrix(1,0,0,1,-95,184)" stroke-linecap="butt">
      <path fill="none" d="M420.2177 48.25 L423.0677 53 L405.2083 53 L405.2083 56 L423.0677 56 L420.2177 60.75 L435.2177 54.5 L420.2177 48.25 Z" clip-path="url(#clipPath2)"/>
    </g>
    <g text-rendering="geometricPrecision" stroke-miterlimit="1.45" stroke-dasharray="6,2" shape-rendering="geometricPrecision" transform="matrix(1,0,0,1,-95,184)" stroke-linecap="butt">
      <path fill="none" d="M663.9323 48.875 L666.7073 53.5 L613.2215 53.5 L613.2215 55.5 L666.7073 55.5 L663.9323 60.125 L677.4323 54.5 L663.9323 48.875 Z" clip-path="url(#clipPath2)"/>
    </g>
    <g text-rendering="geometricPrecision" stroke-miterlimit="1.45" shape-rendering="geometricPrecision" transform="matrix(1,0,0,1,-95,184)" stroke-linecap="butt">
      <path fill="none" d="M374.1635 13.9902 L379.9625 2.2227 L405.725 -43.0844 L431.4875 -81.4211 L444.3688 -97.9756 L457.25 -112.7875 L470.1313 -125.8568 L483.0125 -137.1836 L495.8938 -146.7678 L508.775 -154.6094 L521.6563 -160.7084 L534.5375 -165.0649 L547.4188 -167.6787 L560.3 -168.55 L573.1813 -167.6787 L586.0626 -165.0649 L598.9438 -160.7084 L611.825 -154.6094 L624.7063 -146.7678 L637.5875 -137.1836 L650.4688 -125.8568 L663.35 -112.7875 L676.2313 -97.9756 L689.1125 -81.4211 L693.6824 -74.6208" clip-path="url(#clipPath2)"/>
      <path d="M698.1445 -67.9808 L695.6014 -80.7296 L693.1246 -75.4508 L687.3014 -75.152 Z" clip-path="url(#clipPath2)" stroke="none"/>
    </g>
  </g>
</svg>
