<?xml version="1.0" encoding="UTF-8"?><svg xmlns="http://www.w3.org/2000/svg" xmlns:xlink="http://www.w3.org/1999/xlink" fill-opacity="1" color-rendering="auto" color-interpolation="auto" text-rendering="auto" stroke="black" stroke-linecap="square" width="777" stroke-miterlimit="10" shape-rendering="auto" stroke-opacity="1" fill="black" stroke-dasharray="none" font-weight="normal" stroke-width="1" height="376" font-family="'Dialog'" font-style="normal" stroke-linejoin="miter" font-size="12px" stroke-dashoffset="0" image-rendering="auto">
  <!--Generated by ySVG 2.5-->
  <defs id="genericDefs"/>
  <g>
    <defs id="defs1">
      <clipPath clipPathUnits="userSpaceOnUse" id="clipPath1">
        <path d="M0 0 L777 0 L777 376 L0 376 L0 0 Z"/>
      </clipPath>
      <clipPath clipPathUnits="userSpaceOnUse" id="clipPath2">
        <path d="M94 -184 L871 -184 L871 192 L94 192 L94 -184 Z"/>
      </clipPath>
    </defs>
    <g stroke-linecap="butt" font-size="18px" transform="matrix(1,0,0,1,-94,184)" fill="white" text-rendering="geometricPrecision" font-family="sans-serif" shape-rendering="geometricPrecision" stroke="white" stroke-miterlimit="1.45">
      <text x="328.6414" xml:space="preserve" y="50.2549" clip-path="url(#clipPath2)" stroke="none">Gross</text>
    </g>
    <g stroke-linecap="butt" font-size="18px" transform="matrix(1,0,0,1,-94,184)" fill="white" text-rendering="geometricPrecision" font-family="sans-serif" shape-rendering="geometricPrecision" stroke="white" stroke-miterlimit="1.45">
      <text x="320.0501" xml:space="preserve" y="71.208" clip-path="url(#clipPath2)" stroke="none">Exports</text>
    </g>
    <g stroke-linecap="butt" transform="matrix(1,0,0,1,-94,184)" fill="rgb(66,175,250)" text-rendering="geometricPrecision" shape-rendering="geometricPrecision" stroke="rgb(66,175,250)" stroke-miterlimit="1.45">
      <rect x="303.2" y="14" clip-path="url(#clipPath2)" fill="none" width="102" rx="4" ry="4" height="81"/>
    </g>
    <g stroke-linecap="butt" font-size="18px" transform="matrix(1,0,0,1,-94,184)" fill="white" text-rendering="geometricPrecision" font-family="sans-serif" shape-rendering="geometricPrecision" stroke="white" stroke-miterlimit="1.45">
      <text x="174.2061" xml:space="preserve" y="-45.292" clip-path="url(#clipPath2)" stroke="none">cou B</text>
    </g>
    <g stroke-linecap="butt" transform="matrix(1,0,0,1,-94,184)" fill="rgb(66,175,250)" text-rendering="geometricPrecision" shape-rendering="geometricPrecision" stroke="rgb(66,175,250)" stroke-miterlimit="1.45">
      <rect x="110.4" y="-68" clip-path="url(#clipPath2)" fill="none" width="178" rx="4" ry="4" height="245"/>
    </g>
    <g stroke-linecap="butt" font-size="18px" transform="matrix(1,0,0,1,-94,184)" fill="white" text-rendering="geometricPrecision" font-family="sans-serif" shape-rendering="geometricPrecision" stroke="white" stroke-miterlimit="1.45">
      <text x="156.0216" xml:space="preserve" y="1.2549" clip-path="url(#clipPath2)" stroke="none">Exporting</text>
      <text x="163.6461" xml:space="preserve" y="22.208" clip-path="url(#clipPath2)" stroke="none">Country</text>
    </g>
    <g stroke-linecap="butt" transform="matrix(1,0,0,1,-94,184)" fill="rgb(66,175,250)" text-rendering="geometricPrecision" shape-rendering="geometricPrecision" stroke="rgb(66,175,250)" stroke-miterlimit="1.45">
      <rect x="128.4" y="-40" clip-path="url(#clipPath2)" fill="none" width="142" rx="4" ry="4" height="91"/>
    </g>
    <g stroke-linecap="butt" font-size="18px" transform="matrix(1,0,0,1,-94,184)" fill="white" text-rendering="geometricPrecision" font-family="sans-serif" shape-rendering="geometricPrecision" stroke="white" stroke-miterlimit="1.45">
      <text x="156.0216" xml:space="preserve" y="107.2549" clip-path="url(#clipPath2)" stroke="none">Exporting</text>
      <text x="162.3805" xml:space="preserve" y="128.208" clip-path="url(#clipPath2)" stroke="none">Industry</text>
    </g>
    <g stroke-linecap="butt" transform="matrix(1,0,0,1,-94,184)" fill="rgb(66,175,250)" text-rendering="geometricPrecision" shape-rendering="geometricPrecision" stroke="rgb(66,175,250)" stroke-miterlimit="1.45">
      <rect x="128.4" y="66" clip-path="url(#clipPath2)" fill="none" width="142" rx="4" ry="4" height="91"/>
    </g>
    <g stroke-linecap="butt" font-size="18px" transform="matrix(1,0,0,1,-94,184)" fill="white" text-rendering="geometricPrecision" font-family="sans-serif" shape-rendering="geometricPrecision" stroke="white" stroke-miterlimit="1.45">
      <text x="498.8963" xml:space="preserve" y="-45.292" clip-path="url(#clipPath2)" stroke="none">cou C</text>
    </g>
    <g stroke-linecap="butt" transform="matrix(1,0,0,1,-94,184)" fill="rgb(66,175,250)" text-rendering="geometricPrecision" shape-rendering="geometricPrecision" stroke="rgb(66,175,250)" stroke-miterlimit="1.45">
      <rect x="435.2" y="-68" clip-path="url(#clipPath2)" fill="none" width="178" rx="4" ry="4" height="245"/>
    </g>
    <g stroke-linecap="butt" font-size="18px" transform="matrix(1,0,0,1,-94,184)" fill="white" text-rendering="geometricPrecision" font-family="sans-serif" shape-rendering="geometricPrecision" stroke="white" stroke-miterlimit="1.45">
      <text x="741.2238" xml:space="preserve" y="-45.292" clip-path="url(#clipPath2)" stroke="none">cou A</text>
    </g>
    <g stroke-linecap="butt" transform="matrix(1,0,0,1,-94,184)" fill="rgb(66,175,250)" text-rendering="geometricPrecision" shape-rendering="geometricPrecision" stroke="rgb(66,175,250)" stroke-miterlimit="1.45">
      <rect x="677.4" y="-68" clip-path="url(#clipPath2)" fill="none" width="178" rx="4" ry="4" height="245"/>
    </g>
    <g stroke-linecap="butt" font-size="18px" transform="matrix(1,0,0,1,-94,184)" fill="white" text-rendering="geometricPrecision" font-family="sans-serif" shape-rendering="geometricPrecision" stroke="white" stroke-miterlimit="1.45">
      <text x="709.548" xml:space="preserve" y="1.2549" clip-path="url(#clipPath2)" stroke="none">Value-added</text>
      <text x="696.6764" xml:space="preserve" y="22.208" clip-path="url(#clipPath2)" stroke="none">Source Country</text>
    </g>
    <g stroke-linecap="butt" transform="matrix(1,0,0,1,-94,184)" fill="rgb(66,175,250)" text-rendering="geometricPrecision" shape-rendering="geometricPrecision" stroke="rgb(66,175,250)" stroke-miterlimit="1.45">
      <rect x="695.4" y="-40" clip-path="url(#clipPath2)" fill="none" width="142" rx="4" ry="4" height="91"/>
    </g>
    <g stroke-linecap="butt" font-size="18px" transform="matrix(1,0,0,1,-94,184)" fill="white" text-rendering="geometricPrecision" font-family="sans-serif" shape-rendering="geometricPrecision" stroke="white" stroke-miterlimit="1.45">
      <text x="709.548" xml:space="preserve" y="107.2549" clip-path="url(#clipPath2)" stroke="none">Value-added</text>
      <text x="695.4108" xml:space="preserve" y="128.208" clip-path="url(#clipPath2)" stroke="none">Source Industry</text>
    </g>
    <g stroke-linecap="butt" transform="matrix(1,0,0,1,-94,184)" fill="rgb(66,175,250)" text-rendering="geometricPrecision" shape-rendering="geometricPrecision" stroke="rgb(66,175,250)" stroke-miterlimit="1.45">
      <rect x="695.4" y="66" clip-path="url(#clipPath2)" fill="none" width="142" rx="4" ry="4" height="91"/>
    </g>
    <g stroke-linecap="butt" font-size="18px" transform="matrix(1,0,0,1,-94,184)" fill="white" text-rendering="geometricPrecision" font-family="sans-serif" shape-rendering="geometricPrecision" stroke="white" stroke-miterlimit="1.45">
      <text x="480.4129" xml:space="preserve" y="1.2549" clip-path="url(#clipPath2)" stroke="none">Importing</text>
      <text x="488.4461" xml:space="preserve" y="22.208" clip-path="url(#clipPath2)" stroke="none">Country</text>
    </g>
    <g stroke-linecap="butt" transform="matrix(1,0,0,1,-94,184)" fill="rgb(66,175,250)" text-rendering="geometricPrecision" shape-rendering="geometricPrecision" stroke="rgb(66,175,250)" stroke-miterlimit="1.45">
      <rect x="453.2" y="-40" clip-path="url(#clipPath2)" fill="none" width="142" rx="4" ry="4" height="91"/>
    </g>
    <g stroke-linecap="butt" font-size="16px" transform="matrix(1,0,0,1,-94,184)" fill="white" text-rendering="geometricPrecision" font-family="sans-serif" shape-rendering="geometricPrecision" stroke="white" stroke-miterlimit="1.45">
      <text x="123.2133" xml:space="preserve" y="-127.2734" clip-path="url(#clipPath2)" stroke="none">Value-added generated in country A</text>
      <text x="111.6781" xml:space="preserve" y="-108.6484" clip-path="url(#clipPath2)" stroke="none">by exports from country B to country C</text>
    </g>
    <g stroke-linecap="butt" transform="matrix(1,0,0,1,-94,184)" fill="rgb(66,175,250)" text-rendering="geometricPrecision" shape-rendering="geometricPrecision" stroke="rgb(66,175,250)" stroke-miterlimit="1.45">
      <rect x="110.4" y="-157" clip-path="url(#clipPath2)" fill="none" width="316.4" rx="4" ry="4" height="67"/>
    </g>
    <g stroke-linecap="butt" transform="matrix(1,0,0,1,-94,184)" fill="white" text-rendering="geometricPrecision" shape-rendering="geometricPrecision" stroke="white" stroke-miterlimit="1.45">
      <path fill="none" d="M288.4024 53 L288.4024 56 L303.2133 56 L303.2133 53 Z" clip-path="url(#clipPath2)"/>
    </g>
    <g stroke-linecap="butt" transform="matrix(1,0,0,1,-94,184)" fill="white" text-rendering="geometricPrecision" shape-rendering="geometricPrecision" stroke="white" stroke-miterlimit="1.45">
      <path fill="none" d="M420.2177 48.25 L423.0677 53 L405.2083 53 L405.2083 56 L423.0677 56 L420.2177 60.75 L435.2177 54.5 L420.2177 48.25 Z" clip-path="url(#clipPath2)"/>
    </g>
    <g stroke-linecap="butt" transform="matrix(1,0,0,1,-94,184)" fill="white" text-rendering="geometricPrecision" shape-rendering="geometricPrecision" stroke-dasharray="6,2" stroke="white" stroke-miterlimit="1.45">
      <path fill="none" d="M663.9323 48.875 L666.7073 53.5 L613.2215 53.5 L613.2215 55.5 L666.7073 55.5 L663.9323 60.125 L677.4323 54.5 L663.9323 48.875 Z" clip-path="url(#clipPath2)"/>
    </g>
    <g stroke-linecap="butt" transform="matrix(1,0,0,1,-94,184)" fill="white" text-rendering="geometricPrecision" shape-rendering="geometricPrecision" stroke="white" stroke-miterlimit="1.45">
      <path fill="none" d="M374.1635 13.9902 L379.9625 2.2227 L405.725 -43.0844 L431.4875 -81.4211 L444.3688 -97.9756 L457.25 -112.7875 L470.1313 -125.8568 L483.0125 -137.1836 L495.8938 -146.7678 L508.775 -154.6094 L521.6563 -160.7084 L534.5375 -165.0649 L547.4188 -167.6787 L560.3 -168.55 L573.1813 -167.6787 L586.0626 -165.0649 L598.9438 -160.7084 L611.825 -154.6094 L624.7063 -146.7678 L637.5875 -137.1836 L650.4688 -125.8568 L663.35 -112.7875 L676.2313 -97.9756 L689.1125 -81.4211 L693.6824 -74.6208" clip-path="url(#clipPath2)"/>
      <path d="M698.1445 -67.9808 L695.6014 -80.7296 L693.1246 -75.4508 L687.3014 -75.152 Z" clip-path="url(#clipPath2)" stroke="none"/>
    </g>
  </g>
</svg>
